# xmcd
#
# Track frame offsets: 
#        150
#        13743
#        28037
#        42606
#        56714
#        74173
#        90191
#        118511
#        132037
#        143661
#        168963
#
# Disc length: 2545 seconds
#
# Revision: 0
# Processed by: cddbd v1.5.2PL0 Copyright (c) Steve Scherf et al.
# Submitted via: ExactAudioCopy v0.99pb3
#
DISCID=9509ef0b
DTITLE=Bluesix - Ready
DYEAR=2008
DGENRE=Blues
TTITLE0=Ready
TTITLE1=Tore Down
TTITLE2=Not Fade Away
TTITLE3=Victim Of Life's Circumstances
TTITLE4=Why Get Up?
TTITLE5=Like We Used To Do
TTITLE6=Love Her With A Feeling
TTITLE7=Boogie Thing
TTITLE8=She Got Me
TTITLE9=King Of The New York Streets
TTITLE10=Move It
EXTD=
EXTT0=
EXTT1=
EXTT2=
EXTT3=
EXTT4=
EXTT5=
EXTT6=
EXTT7=
EXTT8=
EXTT9=
EXTT10=
PLAYORDER=
